{"title":"The.Ten.Commandments.1956.1080p.BluRay.x264-KaKa","uid":6343801,"size":17680273718,"categoryP":"video","categoryS":"hd___movies","magnet":"?xt=urn:btih:a13361b8a8a7a0438d13d355378b7310dcce3fa9&amp;dn=The.Ten.Commandments.1956.1080p.BluRay.x264-KaKa&amp;tr=udp%3A%2F%2Ftracker.openbittorrent.com%3A80&amp;tr=udp%3A%2F%2Fopen.demonii.com%3A1337&amp;tr=udp%3A%2F%2Ftracker.coppersurfer.tk%3A6969&amp;tr=udp%3A%2F%2Fexodus.desync.com%3A6969","seeders":1,"leechers":0,"uploader":"Wind8Water","files":-1,"time":1303764299,"description":"&quot;The Ten Commandments&quot; was the final film in the five-decade career of\nlegendary producer and director Cecil B. DeMille, successfully combining high\nproduction values and epic scope for a box-office blockbuster. Expanded from\none of the segments in DeMille's 1923 silent film of the same name, it benefits\ngreatly from Charlton Heston's star-making performance as Moses, and from a\nveteran supporting cast that includes Yul Brynner, Anne Baxter, Edward G.\nRobinson and Vincent Price. The production design has an appropriate sense of\ngrandeur and the parting of the Red Sea is among the most famous scenes in any\nfilm from the 1950s. DeMille's directing style is straightforward, maintaining\na clean, brisk pace throughout the film's 232 minutes. The Ten Commandments was\nnominated for seven Academy Awards, including Best Picture, winning for John\nFulton's special effects.\n\n &lt;a href=&quot;\nhttp://en.wikipedia.org/wiki/The_Ten_Commandments_%281956_film%29&quot; rel=&quot;nofollow&quot; target=&quot;_NEW&quot;&gt;\nhttp://en.wikipedia.org/wiki/The_Ten_Commandments_%281956_film%29&lt;/a&gt;\n &lt;a href=&quot;\nhttp://www.imdb.com/title/tt0049833/&quot; rel=&quot;nofollow&quot; target=&quot;_NEW&quot;&gt;\nhttp://www.imdb.com/title/tt0049833/&lt;/a&gt;\n\n\nR E L E A S E    I N F O\n\nRELEASE..... 11/04/04\nRIPPER..... KaKa\nCOUNTRY..... USA\nIMDb RATING..... 7.9/10 (21,820 votes)\nFRAME RATE..... 23.976Fps\nVIDEO CODEC..... X264 8620K\nAUDIO CODEC..... DTS 1536K\nRESOLUTION..... 1920x1080\nRUNTIME..... 232MiN\nGENRE..... Adventure | Drama | History\nLANGUAGE..... English\n\n\nSubtitles (not embedded): English, Arabic, Czech, Danish, Dutch, Hebrew,\nCroatian, Romanian, Serbian (Cyrillic), Slovenian, Spanish, Serbian\n\n\nScreenshots &amp; Sample included\n\n\nMedia Info\n\nFormat                            : Matroska\n File size                        : 16.4 GiB\n Duration                         : 3h 51mn\n Overall bit rate                 : 10.1 Mbps\n Encoded date                     : UTC 2011-04-04 21:23:23\n Writing application              : mkvmerge v4.5.0 ('Speed of Light')\n                                    built on Feb  1 2011 02:10:32\n Writing library                  : libebml v1.2.0 + libmatroska v1.1.0\n\nVideo\n Format                           : AVC\n Format profile                   : &lt;a class=&quot;__cf_email__&quot; href=&quot;/cdn-cgi/l/email-protection&quot; data-cfemail=&quot;440c2d232c0408706a75&quot;&gt;[email&amp;#160;protected]&lt;/a&gt;&lt;script cf-hash='f9e31' type=&quot;text/javascript&quot;&gt;\n/* &lt;![CDATA[ */!function(){try{var t=&quot;currentScript&quot;in document?document.currentScript:function(){for(var t=document.getElementsByTagName(&quot;script&quot;),e=t.length;e--;)if(t[e].getAttribute(&quot;cf-hash&quot;))return t[e]}();if(t&amp;&amp;t.previousSibling){var e,r,n,i,c=t.previousSibling,a=c.getAttribute(&quot;data-cfemail&quot;);if(a){for(e=&quot;&quot;,r=parseInt(a.substr(0,2),16),n=2;a.length-n;n+=2)i=parseInt(a.substr(n,2),16)^r,e+=String.fromCharCode(i);e=document.createTextNode(e),c.parentNode.replaceChild(e,c)}}}catch(u){}}();/* ]]&gt; */&lt;/script&gt;\n Format settings, CABAC           : Yes\n Format settings, ReFrames        : 4 frames\n Bit rate                         : 8 620 Kbps\n Width                            : 1 920 pixels\n Height                           : 1 080 pixels\n Display aspect ratio             : 16:9\n Frame rate                       : 23.976 fps\n Color space                      : YUV\n Chroma subsampling               : 4:2:0\n Bit depth                        : 8 bits\n Scan type                        : Progressive\n Bits/(Pixel*Frame)               : 0.173\n Stream size                      : 13.6 GiB (83%)\n Writing library                  : x264 core 114 r1924 08d04a4\n Language                         : English\n\nAudio\n Format                           : DTS\n Bit rate mode                    : Constant\n Bit rate                         : 1 510 Kbps\n Channel(s)                       : 6 channels\n Channel positions                : Front: L C R, Side: L R, LFE\n Sampling rate                    : 48.0 KHz\n Bit depth                        : 24 bits\n Compression mode                 : Lossy\n Stream size                      : 2.44 GiB (15%)\n Language                         : English\n\n\n\n                                Enjoy &amp; Please Seed  !\t\t","torrent":{"xt":"urn:btih:a13361b8a8a7a0438d13d355378b7310dcce3fa9","amp;dn":"The.Ten.Commandments.1956.1080p.BluRay.x264-KaKa","amp;tr":["udp%3A%2F%2Ftracker.openbittorrent.com%3A80","udp%3A%2F%2Fopen.demonii.com%3A1337","udp%3A%2F%2Ftracker.coppersurfer.tk%3A6969","udp%3A%2F%2Fexodus.desync.com%3A6969"],"infoHash":"a13361b8a8a7a0438d13d355378b7310dcce3fa9","infoHashBuffer":{"type":"Buffer","data":[161,51,97,184,168,167,160,67,141,19,211,85,55,139,115,16,220,206,63,169]},"announce":[],"urlList":[]}}